<svg width="26" height="26" viewBox="0 0 26 26" fill="none" xmlns="http://www.w3.org/2000/svg">
<g id="LinkedIN">
<path id="back" d="M0 13C0 5.8203 5.8203 0 13 0C20.1797 0 26 5.8203 26 13C26 20.1797 20.1797 26 13 26C5.8203 26 0 20.1797 0 13Z" fill="#0077B5"/>
<path id="Shape" fill-rule="evenodd" clip-rule="evenodd" d="M9.37683 8.02896C9.37683 8.87889 8.73706 9.55898 7.70981 9.55898H7.69098C6.70191 9.55898 6.0625 8.87889 6.0625 8.02896C6.0625 7.16105 6.72139 6.5 7.72923 6.5C8.73706 6.5 9.35771 7.16105 9.37683 8.02896ZM9.18046 10.7671V19.6188H6.23438V10.7671H9.18046ZM19.8064 19.6192L19.8065 14.5439C19.8065 11.825 18.3531 10.5596 16.4144 10.5596C14.8503 10.5596 14.15 11.4187 13.7589 12.0214V10.7677H10.8125C10.8513 11.5983 10.8125 19.6194 10.8125 19.6194H13.7589V14.6759C13.7589 14.4113 13.7781 14.1474 13.856 13.958C14.0689 13.4295 14.5537 12.8823 15.3676 12.8823C16.4341 12.8823 16.8604 13.694 16.8604 14.8835V19.6192H19.8064Z" fill="white"/>
</g>
</svg>
