<svg width="26" height="26" viewBox="0 0 26 26" fill="none" xmlns="http://www.w3.org/2000/svg">
<g id="Quora">
<path id="back" d="M0 13C0 5.8203 5.8203 0 13 0C20.1797 0 26 5.8203 26 13C26 20.1797 20.1797 26 13 26C5.8203 26 0 20.1797 0 13Z" fill="#B92B27"/>
<path id="Shape" fill-rule="evenodd" clip-rule="evenodd" d="M12.2679 19.2275C12.8862 19.2275 13.5106 19.1405 14.0989 18.9834L14.0969 18.9844C14.7972 20.185 15.7327 21.2096 17.4986 21.2096C20.4172 21.2096 20.7403 18.5212 20.6803 17.8738H19.6358C19.5817 18.3601 19.2576 18.9784 18.4571 18.9784C17.7228 18.9784 17.1945 18.4681 16.6842 17.7007C18.2701 16.4721 19.3606 14.5721 19.3606 12.2339C19.3606 8.02967 15.8988 5.2002 12.2669 5.2002C8.69505 5.2002 5.19922 8.05169 5.19922 12.2339C5.19922 16.378 8.69605 19.2275 12.2679 19.2275ZM10.9601 15.4884C12.2298 15.4884 12.8801 16.592 13.4344 17.6825C13.0802 17.7866 12.694 17.8326 12.2678 17.8326C9.58639 17.8326 8.42578 15.9396 8.42578 12.2337C8.42578 8.50773 9.58639 6.59473 12.2678 6.59473C14.9892 6.59473 16.1538 8.50773 16.1538 12.2337C16.1538 13.7255 15.9597 14.9301 15.5495 15.8205C14.8571 14.778 13.9857 13.9576 12.2878 13.9576C11.1962 13.9576 10.3468 14.3158 9.82251 14.768L10.2527 15.6284C10.4749 15.5284 10.718 15.4884 10.9601 15.4884Z" fill="white"/>
</g>
</svg>
