<svg width="37" height="36" viewBox="0 0 37 36" fill="none" xmlns="http://www.w3.org/2000/svg">
<g id="Frame" clip-path="url(#clip0_91_264)">
<path id="Vector" d="M5 4.5H32C32.3978 4.5 32.7794 4.65804 33.0607 4.93934C33.342 5.22064 33.5 5.60218 33.5 6V30C33.5 30.3978 33.342 30.7794 33.0607 31.0607C32.7794 31.342 32.3978 31.5 32 31.5H5C4.60218 31.5 4.22064 31.342 3.93934 31.0607C3.65804 30.7794 3.5 30.3978 3.5 30V6C3.5 5.60218 3.65804 5.22064 3.93934 4.93934C4.22064 4.65804 4.60218 4.5 5 4.5ZM6.5 7.5V28.5H30.5V7.5H6.5ZM18.5 22.5H27.5V25.5H18.5V22.5ZM13.5005 18L9.257 13.758L11.3795 11.6355L17.7425 18L11.3795 24.3645L9.257 22.242L13.5005 18Z" fill="black"/>
</g>
<defs>
<clipPath id="clip0_91_264">
<rect width="36" height="36" fill="white" transform="translate(0.5)"/>
</clipPath>
</defs>
</svg>
