<svg width="22" height="22" viewBox="0 0 22 22" fill="none" xmlns="http://www.w3.org/2000/svg">
<g id="Frame" clip-path="url(#clip0_91_201)">
<path id="Vector" d="M6.2846 5.34272V2.51415C6.2846 2.26408 6.38393 2.02427 6.56075 1.84745C6.73758 1.67063 6.97739 1.57129 7.22746 1.57129H14.7703C15.0204 1.57129 15.2602 1.67063 15.437 1.84745C15.6138 2.02427 15.7132 2.26408 15.7132 2.51415V5.34272H19.4846C19.7347 5.34272 19.9745 5.44205 20.1513 5.61887C20.3281 5.79569 20.4275 6.03551 20.4275 6.28557V19.4856C20.4275 19.7356 20.3281 19.9755 20.1513 20.1523C19.9745 20.3291 19.7347 20.4284 19.4846 20.4284H2.51317C2.26311 20.4284 2.02329 20.3291 1.84647 20.1523C1.66965 19.9755 1.57031 19.7356 1.57031 19.4856V6.28557C1.57031 6.03551 1.66965 5.79569 1.84647 5.61887C2.02329 5.44205 2.26311 5.34272 2.51317 5.34272H6.2846ZM18.5417 12.8856H3.45603V18.5427H18.5417V12.8856ZM18.5417 7.22843H3.45603V10.9999H6.2846V9.11415H8.17031V10.9999H13.8275V9.11415H15.7132V10.9999H18.5417V7.22843ZM8.17031 3.457V5.34272H13.8275V3.457H8.17031Z" fill="black"/>
</g>
<defs>
<clipPath id="clip0_91_201">
<rect width="22" height="22" fill="white"/>
</clipPath>
</defs>
</svg>
