<svg width="37" height="36" viewBox="0 0 37 36" fill="none" xmlns="http://www.w3.org/2000/svg">
<g id="Sapling Icon">
<path id="Vector" d="M18.963 14.9808H22.8822C24.6145 14.9808 26.2762 14.2924 27.5012 13.0674C28.7263 11.8423 29.4144 10.181 29.4144 8.44852V5.3999H22.8822C21.1498 5.3999 19.4881 6.08825 18.2633 7.31331C17.0382 8.53842 16.3499 10.1997 16.3499 11.9322V14.5452C15.2207 13.6944 13.8444 13.2357 12.4307 13.2387H5.89844V16.287C5.89844 18.0197 6.58648 19.6811 7.81161 20.9061C9.03674 22.1311 10.6983 22.8193 12.4307 22.8193H16.3499V32.3999H18.963V28.916H22.8822C24.6145 28.916 26.2762 28.2276 27.5012 27.0025C28.7264 25.7778 29.4144 24.1161 29.4144 22.3837V19.3354H22.8822C21.4684 19.332 20.092 19.7907 18.963 20.6416V14.9808ZM18.963 11.9325V11.9322C18.963 10.8927 19.3758 9.89597 20.1109 9.16086C20.8457 8.42574 21.8427 8.01289 22.8822 8.01289H26.8014V8.4485H26.8017C26.8017 9.48798 26.3886 10.4847 25.6538 11.2198C24.9186 11.9549 23.9217 12.3678 22.8821 12.3678H18.9629L18.963 11.9325ZM12.4307 20.2067C11.3912 20.2067 10.3942 19.7935 9.65907 19.0587C8.92426 18.3236 8.51111 17.3266 8.51111 16.2871V15.8518H12.4306C13.4701 15.8518 14.4671 16.2646 15.2019 16.9997C15.937 17.7346 16.3499 18.7316 16.3499 19.7711V20.2067L12.4307 20.2067ZM22.8823 21.9484H26.8015V22.3841H26.8018C26.8018 23.4235 26.3887 24.4206 25.6538 25.1554C24.9187 25.8905 23.9218 26.3033 22.8822 26.3033H18.963V25.868C18.963 24.8285 19.3758 23.8315 20.111 23.0964C20.8458 22.3616 21.8428 21.9484 22.8823 21.9484L22.8823 21.9484Z" fill="#2B2F34"/>
</g>
</svg>
